<svg width="338" height="394" viewBox="0 0 338 394" fill="none" xmlns="http://www.w3.org/2000/svg">
<g opacity="0.1">
<g clip-path="url(#clip0_1_26345)">
<path fill-rule="evenodd" clip-rule="evenodd" d="M479.553 49.7595L431.674 -13.8076L374.258 29.4379L422.137 93.0051L479.553 49.7595ZM464.51 46.8564L430.311 1.45135L389.3 32.341L423.499 77.7461L464.51 46.8564ZM449.468 43.9534L428.949 16.7103L404.342 35.2441L424.862 62.4872L449.468 43.9534ZM434.426 41.0503L427.586 31.9693L419.384 38.1472L426.224 47.2282L434.426 41.0503ZM416.631 -16.7107L382.432 -62.1158L341.421 -31.2261L375.62 14.179L416.631 -16.7107ZM401.589 -19.6138L381.07 -46.8568L356.463 -28.323L376.983 -1.07997L401.589 -19.6138ZM386.547 -22.5168L379.707 -31.5979L371.505 -25.4199L378.345 -16.3389L386.547 -22.5168Z" fill="#61AFF9"/>
</g>
<g clip-path="url(#clip1_1_26345)">
<path fill-rule="evenodd" clip-rule="evenodd" d="M230.621 -161.264L278.5 -97.6966L221.085 -54.451L173.206 -118.018L230.621 -161.264ZM229.259 -146.005L263.458 -100.6L222.447 -69.71L188.248 -115.115L229.259 -146.005ZM227.896 -130.746L248.416 -103.503L223.809 -84.9689L203.29 -112.212L227.896 -130.746ZM226.534 -115.487L233.374 -106.406L225.172 -100.228L218.332 -109.309L226.534 -115.487ZM277.138 -82.4376L311.337 -37.0325L270.326 -6.14286L236.127 -51.5479L277.138 -82.4376ZM275.775 -67.1787L296.295 -39.9356L271.688 -21.4018L251.169 -48.6449L275.775 -67.1787ZM274.413 -51.9197L281.253 -42.8387L273.051 -36.6608L266.211 -45.7418L274.413 -51.9197Z" fill="#61AFF9"/>
<path fill-rule="evenodd" clip-rule="evenodd" d="M268.964 9.11621L221.085 -54.4509L163.669 -11.2054L211.548 52.3617L268.964 9.11621ZM253.922 6.21313L219.722 -39.192L178.711 -8.30229L212.911 37.1028L253.922 6.21313ZM238.879 3.31004L218.36 -23.933L193.753 -5.39921L214.273 21.8438L238.879 3.31004ZM223.837 0.406961L216.998 -8.67406L208.795 -2.49612L215.635 6.58489L223.837 0.406961ZM206.043 -57.354L171.843 -102.759L130.832 -71.8694L165.032 -26.4643L206.043 -57.354ZM191.001 -60.2571L170.481 -87.5001L145.874 -68.9663L166.394 -41.7233L191.001 -60.2571ZM175.958 -63.1602L169.119 -72.2412L160.916 -66.0632L167.756 -56.9822L175.958 -63.1602Z" fill="#61AFF9"/>
</g>
<g clip-path="url(#clip2_1_26345)">
<path fill-rule="evenodd" clip-rule="evenodd" d="M326.379 -34.1294L374.258 29.4377L316.843 72.6833L268.964 9.11614L326.379 -34.1294ZM325.017 -18.8704L359.216 26.5346L318.205 57.4243L284.006 12.0192L325.017 -18.8704ZM323.654 -3.61149L344.174 23.6316L319.567 42.1654L299.048 14.9223L323.654 -3.61149ZM322.292 11.6475L329.132 20.7285L320.93 26.9064L314.09 17.8254L322.292 11.6475ZM372.896 44.6967L407.095 90.1018L366.084 120.991L331.885 75.5863L372.896 44.6967ZM371.533 59.9556L392.053 87.1987L367.446 105.732L346.927 78.4894L371.533 59.9556ZM370.171 75.2146L377.011 84.2956L368.809 90.4735L361.969 81.3925L370.171 75.2146Z" fill="#61AFF9"/>
<path fill-rule="evenodd" clip-rule="evenodd" d="M364.722 136.25L316.843 72.6834L259.427 115.929L307.306 179.496L364.722 136.25ZM349.68 133.347L315.48 87.9423L274.469 118.832L308.668 164.237L349.68 133.347ZM334.637 130.444L314.118 103.201L289.511 121.735L310.031 148.978L334.637 130.444ZM319.595 127.541L312.756 118.46L304.553 124.638L311.393 133.719L319.595 127.541ZM301.801 69.7803L267.601 24.3752L226.59 55.2649L260.789 100.67L301.801 69.7803ZM286.758 66.8772L266.239 39.6342L241.632 58.168L262.152 85.411L286.758 66.8772ZM271.716 63.9741L264.877 54.8931L256.674 61.071L263.514 70.1521L271.716 63.9741Z" fill="#61AFF9"/>
</g>
<g clip-path="url(#clip3_1_26345)">
<path fill-rule="evenodd" clip-rule="evenodd" d="M460.48 263.385L412.601 199.818L355.185 243.063L403.064 306.63L460.48 263.385ZM445.437 260.482L411.238 215.077L370.227 245.966L404.426 291.371L445.437 260.482ZM430.395 257.579L409.876 230.336L385.269 248.869L405.789 276.112L430.395 257.579ZM415.353 254.676L408.514 245.594L400.311 251.772L407.151 260.853L415.353 254.676ZM397.559 196.915L363.359 151.509L322.348 182.399L356.547 227.804L397.559 196.915ZM382.516 194.011L361.997 166.768L337.39 185.302L357.91 212.545L382.516 194.011ZM367.474 191.108L360.635 182.027L352.432 188.205L359.272 197.286L367.474 191.108Z" fill="#61AFF9"/>
</g>
<g clip-path="url(#clip4_1_26345)">
<path fill-rule="evenodd" clip-rule="evenodd" d="M115.79 -74.7725L163.669 -11.2053L106.254 32.0402L58.3747 -31.5269L115.79 -74.7725ZM114.428 -59.5135L148.627 -14.1084L107.616 16.7812L73.4168 -28.6238L114.428 -59.5135ZM113.065 -44.2546L133.585 -17.0115L108.978 1.52229L88.4589 -25.7208L113.065 -44.2546ZM111.703 -28.9956L118.543 -19.9146L110.341 -13.7367L103.501 -22.8177L111.703 -28.9956ZM162.307 4.05361L196.506 49.4587L155.495 80.3484L121.296 34.9433L162.307 4.05361ZM160.944 19.3126L181.464 46.5556L156.857 65.0894L136.338 37.8464L160.944 19.3126ZM159.582 34.5715L166.422 43.6525L158.22 49.8305L151.38 40.7494L159.582 34.5715Z" fill="#61AFF9"/>
<path fill-rule="evenodd" clip-rule="evenodd" d="M154.133 95.6074L106.254 32.0403L48.8382 75.2858L96.7172 138.853L154.133 95.6074ZM139.091 92.7043L104.891 47.2993L63.8803 78.1889L98.0796 123.594L139.091 92.7043ZM124.049 89.8013L103.529 62.5582L78.9224 81.092L99.4419 108.335L124.049 89.8013ZM109.007 86.8982L102.167 77.8172L93.9644 83.9951L100.804 93.0761L109.007 86.8982ZM91.2116 29.1372L57.0124 -16.2679L16.0013 14.6218L50.2006 60.0269L91.2116 29.1372ZM76.1696 26.2341L55.65 -1.00891L31.0434 17.5249L51.563 44.7679L76.1696 26.2341ZM61.1275 23.3311L54.2877 14.25L46.0855 20.428L52.9253 29.509L61.1275 23.3311Z" fill="#61AFF9"/>
</g>
<g clip-path="url(#clip5_1_26345)">
<path fill-rule="evenodd" clip-rule="evenodd" d="M211.548 52.3618L259.427 115.929L202.012 159.174L154.133 95.6074L211.548 52.3618ZM210.186 67.6208L244.385 113.026L203.374 143.916L169.175 98.5104L210.186 67.6208ZM208.823 82.8797L229.343 110.123L204.736 128.657L184.217 101.414L208.823 82.8797ZM207.461 98.1387L214.301 107.22L206.099 113.398L199.259 104.317L207.461 98.1387ZM258.065 131.188L292.264 176.593L251.253 207.483L217.054 162.078L258.065 131.188ZM256.702 146.447L277.222 173.69L252.615 192.224L232.096 164.981L256.702 146.447ZM255.34 161.706L262.18 170.787L253.978 176.965L247.138 167.884L255.34 161.706Z" fill="#61AFF9"/>
<path fill-rule="evenodd" clip-rule="evenodd" d="M249.891 222.742L202.012 159.175L144.596 202.42L192.475 265.987L249.891 222.742ZM234.849 219.839L200.649 174.434L159.638 205.323L193.838 250.728L234.849 219.839ZM219.807 216.936L199.287 189.692L174.68 208.226L195.2 235.469L219.807 216.936ZM204.764 214.032L197.925 204.951L189.722 211.129L196.562 220.21L204.764 214.032ZM186.97 156.271L152.77 110.866L111.759 141.756L145.959 187.161L186.97 156.271ZM171.928 153.368L151.408 126.125L126.801 144.659L147.321 171.902L171.928 153.368ZM156.885 150.465L150.046 141.384L141.843 147.562L148.683 156.643L156.885 150.465Z" fill="#61AFF9"/>
</g>
<g clip-path="url(#clip6_1_26345)">
<path fill-rule="evenodd" clip-rule="evenodd" d="M307.306 179.496L355.185 243.063L297.77 286.309L249.891 222.742L307.306 179.496ZM305.944 194.755L340.143 240.16L299.132 271.05L264.933 225.645L305.944 194.755ZM304.581 210.014L325.101 237.257L300.494 255.791L279.975 228.548L304.581 210.014ZM303.219 225.273L310.059 234.354L301.857 240.532L295.017 231.451L303.219 225.273ZM353.823 258.322L388.022 303.727L347.011 334.617L312.812 289.212L353.823 258.322ZM352.46 273.581L372.98 300.824L348.373 319.358L327.854 292.115L352.46 273.581ZM351.098 288.84L357.938 297.921L349.736 304.099L342.896 295.018L351.098 288.84Z" fill="#61AFF9"/>
<path fill-rule="evenodd" clip-rule="evenodd" d="M345.649 349.876L297.77 286.309L240.354 329.554L288.233 393.122L345.649 349.876ZM330.607 346.973L296.407 301.568L255.396 332.457L289.596 377.863L330.607 346.973ZM315.565 344.07L295.045 316.827L270.438 335.361L290.958 362.604L315.565 344.07ZM300.522 341.167L293.683 332.086L285.48 338.264L292.32 347.345L300.522 341.167ZM282.728 283.406L248.528 238.001L207.517 268.89L241.717 314.295L282.728 283.406ZM267.686 280.503L247.166 253.26L222.559 271.793L243.079 299.036L267.686 280.503ZM252.643 277.6L245.804 268.519L237.601 274.697L244.441 283.778L252.643 277.6Z" fill="#61AFF9"/>
</g>
</g>
<defs>
<clipPath id="clip0_1_26345">
<rect width="159.163" height="143.76" fill="white" transform="translate(441.21 -120.62) rotate(53.0128)"/>
</clipPath>
<clipPath id="clip1_1_26345">
<rect width="159.163" height="143.76" fill="white" transform="translate(230.621 -161.264) rotate(53.0128)"/>
</clipPath>
<clipPath id="clip2_1_26345">
<rect width="159.163" height="143.76" fill="white" transform="translate(326.379 -34.1294) rotate(53.0128)"/>
</clipPath>
<clipPath id="clip3_1_26345">
<rect width="159.163" height="143.76" fill="white" transform="translate(422.137 93.0049) rotate(53.0128)"/>
</clipPath>
<clipPath id="clip4_1_26345">
<rect width="159.163" height="143.76" fill="white" transform="translate(115.79 -74.7725) rotate(53.0128)"/>
</clipPath>
<clipPath id="clip5_1_26345">
<rect width="159.163" height="143.76" fill="white" transform="translate(211.548 52.3618) rotate(53.0128)"/>
</clipPath>
<clipPath id="clip6_1_26345">
<rect width="159.163" height="143.76" fill="white" transform="translate(307.306 179.496) rotate(53.0128)"/>
</clipPath>
</defs>
</svg>
